# xmcd
#
# Track frame offsets:
#	150
#	21170
#	43492
#	62402
#	107163
#	125871
#	159992
#
# Disc length: 2608 seconds
#
# Revision: 0
# Processed by: cddbd v1.5.1PL0 Copyright (c) Steve Scherf et al.
# Submitted via: EasyCDDAExtractor 4.6.9.1
#
DISCID=5e0a2e07
DTITLE=Depeche Mode - First Stand In Vienna - CD2
DYEAR=1988
DGENRE=live
TTITLE0=Pleasure Little Treasure
TTITLE1=People Are People
TTITLE2=A Question Of Time
TTITLE3=Never Let Me Down Again
TTITLE4=A Question Of Lust
TTITLE5=Master And Servant
TTITLE6=Everything Counts
EXTD=
EXTT0=
EXTT1=
EXTT2=
EXTT3=
EXTT4=
EXTT5=
EXTT6=
PLAYORDER=
